<svg xmlns="http://www.w3.org/2000/svg" viewBox="56.9 68.9 101.32 29.58" role="img" aria-label="SWIMMER" fill="currentColor"><g
       id="g1"
       transform="translate(1.5004238,25.88231)"><g
         id="g2"
         transform="matrix(0.34544404,0,0,0.34544404,71.272557,26.381147)"
         style="fill:currentColor;fill-opacity:1;stroke:none"><path
           d="m -26.483754,92.434483 q -8.54383,0 -13.091353,-3.693139 -4.547522,-3.7207 -4.547522,-10.638447 h 10.831372 q 0.137803,2.508028 1.984373,3.913626 1.84657,1.378037 4.960934,1.378037 2.700953,0 4.354597,-0.992187 1.681206,-1.019747 1.681206,-2.618271 0,-1.48828 -1.626084,-2.425345 -1.626084,-0.937065 -5.098738,-1.598523 l -4.07899,-0.771701 q -5.95312,-1.12999 -9.095045,-4.189233 -3.141924,-3.059242 -3.141924,-7.634325 0,-3.913626 2.122177,-6.862625 2.122177,-2.949 5.897999,-4.602644 3.775822,-1.653645 8.764316,-1.653645 7.689447,0 12.099166,3.610458 4.43728,3.610457 4.6302047,10.059671 H -20.365269 q -0.192925,-2.149738 -1.819009,-3.389972 -1.598523,-1.240233 -4.161672,-1.240233 -2.425345,0 -3.968747,0.992187 -1.515841,0.992186 -1.515841,2.535588 0,1.460719 1.460719,2.342663 1.46072,0.854383 4.657766,1.433159 l 3.307289,0.606336 q 7.083111,1.295355 10.252596,4.161672 3.1694857,2.838757 3.1694857,7.772129 0,6.449214 -4.5750837,9.976989 -4.575083,3.527775 -12.925988,3.527775 z M 3.6676975,91.773026 -7.2187958,50.707519 H 5.2386599 l 3.2797283,15.930109 q 0.5512149,2.700953 1.0473082,5.429467 0.5236546,2.700952 1.0197476,5.401905 0.523654,-2.700953 1.074869,-5.401905 0.578775,-2.728514 1.185112,-5.429467 l 3.638018,-15.930109 h 11.13454 l 3.638018,15.930109 q 0.606336,2.700953 1.157551,5.401906 0.578776,2.673392 1.10243,5.346784 0.468532,-2.673392 0.964626,-5.346784 0.523654,-2.700953 1.074869,-5.401906 L 38.862766,50.707519 H 51.320221 L 40.433728,91.773026 H 27.838469 L 23.180703,72.811235 q -0.275607,-1.074869 -0.551215,-2.397785 -0.248046,-1.322916 -0.578775,-2.921439 -0.330729,1.598523 -0.606337,2.921439 -0.248046,1.322916 -0.523654,2.397785 L 16.262957,91.773026 Z M 64.990353,50.707519 V 91.773026 H 53.525084 V 50.707519 Z m 4.409716,41.065507 V 50.707519 h 17.142782 l 3.693139,12.843306 q 0.606337,2.094617 1.46072,5.346784 0.854383,3.252168 1.626083,6.421653 0.771701,-3.169485 1.626084,-6.421653 0.854383,-3.252167 1.433159,-5.346784 L 100.02005,50.707519 H 117.1904 V 91.773026 H 105.94561 V 75.898038 q 0,-1.378037 0.0551,-3.527775 0.0827,-2.177299 0.16536,-4.740448 0.0827,-2.59071 0.1378,-5.20898 -0.96462,3.886064 -1.95681,7.606765 -0.96463,3.7207 -1.62608,5.870438 L 97.952998,91.773026 H 88.692589 L 83.841898,75.898038 q -0.633897,-2.094617 -1.598523,-5.649952 -0.964626,-3.555336 -1.956813,-7.331158 0.110243,3.803383 0.220486,7.41384 0.137804,3.582896 0.137804,5.56727 v 15.874988 z m 52.200041,0 V 50.707519 h 17.14278 l 3.69314,12.843306 q 0.60634,2.094617 1.46072,5.346784 0.85439,3.252168 1.62609,6.421653 0.7717,-3.169485 1.62608,-6.421653 0.85438,-3.252167 1.43316,-5.346784 l 3.63802,-12.843306 h 17.17034 V 91.773026 H 158.14566 V 75.898038 q 0,-1.378037 0.0551,-3.527775 0.0827,-2.177299 0.16536,-4.740448 0.0827,-2.59071 0.13781,-5.20898 -0.96463,3.886064 -1.95682,7.606765 -0.96462,3.7207 -1.62608,5.870438 l -4.76801,15.874988 h -9.26041 l -4.85069,-15.874988 q -0.6339,-2.094617 -1.59852,-5.649952 -0.96463,-3.555336 -1.95682,-7.331158 0.11025,3.803383 0.22049,7.41384 0.1378,3.582896 0.1378,5.56727 v 15.874988 z m 52.20004,0 V 50.707519 h 31.8051 V 60.4089 h -20.33983 v 6.173607 h 18.76887 v 9.370652 h -18.76887 v 6.118485 h 20.33983 v 9.701382 z m 35.66361,0 V 50.707519 h 17.44595 q 4.90581,0 8.48871,1.763888 3.58289,1.736326 5.51215,4.960933 1.95681,3.197046 1.95681,7.606765 0,3.830943 -1.65365,6.752382 -1.62608,2.893878 -4.60264,4.657766 l 7.52408,15.323773 h -11.9338 l -6.14604,-12.843307 h -5.1263 V 91.773026 Z M 220.92903,70.05516 h 5.1263 q 2.59071,0 4.10655,-1.378037 1.51584,-1.378037 1.51584,-3.638018 0,-2.259981 -1.51584,-3.638018 -1.51584,-1.378037 -4.10655,-1.378037 h -5.1263 z"
           id="text1"
           style="font-weight:900;font-size:56.4444px;font-family:'Inter Display';-inkscape-font-specification:'Inter Display Heavy';stroke-width:0.264583;fill:currentColor;fill-opacity:1;stroke:none"
           aria-label="SWIMMER" /><path
           style="fill:currentColor;stroke-width:0.968945;fill-opacity:1;stroke:none"
           d="M 16.368997,116.98882 C 10.170363,108.75734 5.0987519,101.89058 5.0987519,101.72936 c 0,-0.3304 -1.2489056,-0.31433 17.6024971,-0.22644 l 12.374032,0.0577 c 1.995479,2.65842 3.050556,4.06716 6.052146,8.10108 7.151191,9.61069 12.426909,16.69357 14.339372,19.25123 1.105299,1.47818 1.956386,2.77116 1.891307,2.87328 -0.06508,0.10212 -6.778448,0.18191 -14.918595,0.17731 l -14.800268,-0.008 z m 46.449371,13.3495 c -0.589358,-0.77482 -3.772242,-5.05951 -7.073075,-9.52155 -8.614987,-11.64566 -11.722044,-15.82268 -13.092547,-17.60118 -0.39199,-0.50868 -0.645171,-0.99038 -0.562621,-1.07043 0.08254,-0.0801 45.81825,-0.14556 101.634895,-0.14556 90.65685,0 101.49929,0.0366 101.62055,0.34307 0.0823,0.20796 -0.19582,0.69899 -0.70612,1.24679 -0.94092,1.01 -3.23476,2.15465 -5.77025,2.87941 -3.65285,1.04414 -10.4844,1.93866 -16.6149,2.17555 -1.981,0.0765 -6.4252,0.28557 -9.87598,0.4645 -6.79297,0.35223 -37.47555,1.78235 -45.77811,2.13372 -2.81176,0.119 -8.87678,0.36904 -13.47782,0.55565 -4.60105,0.18661 -12.07776,0.49151 -16.61491,0.67755 -4.53715,0.18604 -13.73923,0.53843 -20.44911,0.78309 -6.70985,0.24465 -13.94849,0.51025 -16.085871,0.59022 -4.587887,0.17165 -5.22718,0.37325 -5.739352,1.80994 -0.302245,0.84783 -0.29234,0.99002 0.116183,1.66661 0.976332,1.61698 0.623746,1.53507 10.67119,2.479 2.68393,0.25215 6.86671,0.65872 9.29504,0.90348 2.42833,0.24477 9.12077,0.89859 14.87208,1.45294 5.75131,0.55435 15.63311,1.51471 21.95954,2.13414 6.32646,0.61943 12.60061,1.22739 13.94257,1.35101 1.34198,0.12362 5.52475,0.53034 9.29506,0.90382 3.77031,0.37349 8.60341,0.8374 10.74024,1.03091 2.13683,0.19351 4.36736,0.49259 4.95676,0.66461 1.8432,0.53796 3.29254,1.75453 3.41619,2.86754 l 0.0579,0.52068 -64.83295,0.0566 -64.832962,0.0566 z"
           id="path1"
          
          
           /></g></g></svg>